<mxfile host="app.diagrams.net" modified="2023-11-10T17:24:15.856Z" agent="Mozilla/5.0 (Windows NT 10.0; Win64; x64) AppleWebKit/537.36 (KHTML, like Gecko) Chrome/119.0.0.0 Safari/537.36 Edg/119.0.0.0" etag="cFRBDAB108LaV7jEfXz3" version="22.1.0" type="github">
  <diagram name="PÃ¡gina-1" id="b2JDc7p-JXKE4Cp9WJnI">
    <mxGraphModel dx="1426" dy="751" grid="1" gridSize="10" guides="1" tooltips="1" connect="1" arrows="1" fold="1" page="1" pageScale="1" pageWidth="1169" pageHeight="827" math="0" shadow="0">
      <root>
        <mxCell id="0" />
        <mxCell id="1" parent="0" />
        <mxCell id="FPkLgJer69OduzBSElep-1" value="" style="rounded=0;whiteSpace=wrap;html=1;strokeColor=#000000;" vertex="1" parent="1">
          <mxGeometry x="40" y="80" width="1080" height="670" as="geometry" />
        </mxCell>
        <mxCell id="FPkLgJer69OduzBSElep-2" value="" style="rounded=0;whiteSpace=wrap;html=1;dashed=1;strokeColor=#6666FF;" vertex="1" parent="1">
          <mxGeometry x="70" y="200" width="1010" height="520" as="geometry" />
        </mxCell>
        <mxCell id="FPkLgJer69OduzBSElep-3" value="" style="image;aspect=fixed;html=1;points=[];align=center;fontSize=12;image=img/lib/azure2/general/Subscriptions.svg;" vertex="1" parent="1">
          <mxGeometry x="50" y="89" width="37.8" height="61" as="geometry" />
        </mxCell>
        <mxCell id="FPkLgJer69OduzBSElep-5" value="" style="image;aspect=fixed;html=1;points=[];align=center;fontSize=12;image=img/lib/azure2/compute/App_Services.svg;" vertex="1" parent="1">
          <mxGeometry x="270" y="220" width="64" height="64" as="geometry" />
        </mxCell>
        <mxCell id="FPkLgJer69OduzBSElep-6" value="Pmacoyshoes.shop" style="text;html=1;strokeColor=none;fillColor=none;align=center;verticalAlign=middle;whiteSpace=wrap;rounded=0;" vertex="1" parent="1">
          <mxGeometry x="360" y="237" width="60" height="30" as="geometry" />
        </mxCell>
        <mxCell id="FPkLgJer69OduzBSElep-7" value="Subscription" style="text;html=1;strokeColor=none;fillColor=none;align=center;verticalAlign=middle;whiteSpace=wrap;rounded=0;" vertex="1" parent="1">
          <mxGeometry x="110" y="104.5" width="60" height="30" as="geometry" />
        </mxCell>
        <mxCell id="FPkLgJer69OduzBSElep-8" value="" style="image;sketch=0;aspect=fixed;html=1;points=[];align=center;fontSize=12;image=img/lib/mscae/Storage_Accounts.svg;" vertex="1" parent="1">
          <mxGeometry x="145" y="284" width="50" height="45" as="geometry" />
        </mxCell>
        <mxCell id="FPkLgJer69OduzBSElep-9" value="Cache" style="text;html=1;strokeColor=none;fillColor=none;align=center;verticalAlign=middle;whiteSpace=wrap;rounded=0;" vertex="1" parent="1">
          <mxGeometry x="140" y="325" width="60" height="30" as="geometry" />
        </mxCell>
        <mxCell id="FPkLgJer69OduzBSElep-11" style="edgeStyle=orthogonalEdgeStyle;rounded=0;orthogonalLoop=1;jettySize=auto;html=1;entryX=0.016;entryY=0.531;entryDx=0;entryDy=0;entryPerimeter=0;startArrow=classic;startFill=1;dashed=1;flowAnimation=1;" edge="1" parent="1" source="FPkLgJer69OduzBSElep-8" target="FPkLgJer69OduzBSElep-5">
          <mxGeometry relative="1" as="geometry" />
        </mxCell>
        <mxCell id="FPkLgJer69OduzBSElep-12" value="" style="image;aspect=fixed;html=1;points=[];align=center;fontSize=12;image=img/lib/azure2/app_services/API_Management_Services.svg;" vertex="1" parent="1">
          <mxGeometry x="660" y="355" width="65" height="60" as="geometry" />
        </mxCell>
        <mxCell id="FPkLgJer69OduzBSElep-13" value="" style="image;sketch=0;aspect=fixed;html=1;points=[];align=center;fontSize=12;image=img/lib/mscae/Active_Directory.svg;" vertex="1" parent="1">
          <mxGeometry x="200" y="100" width="50" height="50" as="geometry" />
        </mxCell>
        <mxCell id="FPkLgJer69OduzBSElep-14" value="" style="sketch=0;outlineConnect=0;fontColor=#232F3E;gradientColor=none;fillColor=#232F3D;strokeColor=none;dashed=0;verticalLabelPosition=bottom;verticalAlign=top;align=center;html=1;fontSize=12;fontStyle=0;aspect=fixed;pointerEvents=1;shape=mxgraph.aws4.users;" vertex="1" parent="1">
          <mxGeometry x="282" y="89" width="61" height="61" as="geometry" />
        </mxCell>
        <mxCell id="FPkLgJer69OduzBSElep-15" value="Entra ID" style="text;html=1;strokeColor=none;fillColor=none;align=center;verticalAlign=middle;whiteSpace=wrap;rounded=0;" vertex="1" parent="1">
          <mxGeometry x="190" y="150" width="60" height="30" as="geometry" />
        </mxCell>
        <mxCell id="FPkLgJer69OduzBSElep-16" value="Admin Users" style="text;html=1;strokeColor=none;fillColor=none;align=center;verticalAlign=middle;whiteSpace=wrap;rounded=0;" vertex="1" parent="1">
          <mxGeometry x="283" y="150" width="77" height="30" as="geometry" />
        </mxCell>
        <mxCell id="FPkLgJer69OduzBSElep-17" value="" style="sketch=0;outlineConnect=0;fontColor=#232F3E;gradientColor=none;fillColor=#DD344C;strokeColor=none;dashed=0;verticalLabelPosition=bottom;verticalAlign=top;align=center;html=1;fontSize=12;fontStyle=0;aspect=fixed;pointerEvents=1;shape=mxgraph.aws4.mfa_token;" vertex="1" parent="1">
          <mxGeometry x="320" y="115" width="35" height="35" as="geometry" />
        </mxCell>
        <mxCell id="FPkLgJer69OduzBSElep-18" value="" style="verticalLabelPosition=bottom;html=1;verticalAlign=top;align=center;strokeColor=none;fillColor=#00BEF2;shape=mxgraph.azure.sql_database;" vertex="1" parent="1">
          <mxGeometry x="380" y="370" width="37.5" height="50" as="geometry" />
        </mxCell>
        <mxCell id="FPkLgJer69OduzBSElep-20" style="edgeStyle=orthogonalEdgeStyle;rounded=0;orthogonalLoop=1;jettySize=auto;html=1;" edge="1" parent="1" source="FPkLgJer69OduzBSElep-5">
          <mxGeometry relative="1" as="geometry">
            <mxPoint x="399" y="370" as="targetPoint" />
            <Array as="points">
              <mxPoint x="302" y="330" />
              <mxPoint x="399" y="330" />
            </Array>
          </mxGeometry>
        </mxCell>
        <mxCell id="FPkLgJer69OduzBSElep-21" value="" style="image;sketch=0;aspect=fixed;html=1;points=[];align=center;fontSize=12;image=img/lib/mscae/Key_Vaults.svg;" vertex="1" parent="1">
          <mxGeometry x="260" y="370" width="48" height="50" as="geometry" />
        </mxCell>
        <mxCell id="FPkLgJer69OduzBSElep-22" style="edgeStyle=orthogonalEdgeStyle;rounded=0;orthogonalLoop=1;jettySize=auto;html=1;entryX=1.042;entryY=0.5;entryDx=0;entryDy=0;entryPerimeter=0;" edge="1" parent="1" source="FPkLgJer69OduzBSElep-18" target="FPkLgJer69OduzBSElep-21">
          <mxGeometry relative="1" as="geometry" />
        </mxCell>
        <mxCell id="FPkLgJer69OduzBSElep-23" value="Key Vault" style="text;html=1;strokeColor=none;fillColor=none;align=center;verticalAlign=middle;whiteSpace=wrap;rounded=0;" vertex="1" parent="1">
          <mxGeometry x="254" y="420" width="60" height="30" as="geometry" />
        </mxCell>
        <mxCell id="FPkLgJer69OduzBSElep-24" value="SQL DB" style="text;html=1;strokeColor=none;fillColor=none;align=center;verticalAlign=middle;whiteSpace=wrap;rounded=0;" vertex="1" parent="1">
          <mxGeometry x="368.75" y="420" width="60" height="30" as="geometry" />
        </mxCell>
      </root>
    </mxGraphModel>
  </diagram>
</mxfile>
